<svg xmlns="http://www.w3.org/2000/svg" xmlns:xlink="http://www.w3.org/1999/xlink" width="500" zoomAndPan="magnify" viewBox="0 0 375 374.999991" height="500" preserveAspectRatio="xMidYMid meet" version="1.0"><defs><g/><clipPath id="6015ae440c"><path d="M 0.078125 2 L 236 2 L 236 57 L 0.078125 57 Z M 0.078125 2 " clip-rule="nonzero"/></clipPath><clipPath id="c362311155"><rect x="0" width="236" y="0" height="55"/></clipPath><clipPath id="58a45e69ff"><path d="M 235.199219 0.484375 L 343.371094 0.484375 L 343.371094 108.558594 L 235.199219 108.558594 Z M 235.199219 0.484375 " clip-rule="nonzero"/></clipPath><clipPath id="5b91928496"><path d="M 181.207031 64.035156 L 221.636719 64.035156 L 221.636719 94.628906 L 181.207031 94.628906 Z M 181.207031 64.035156 " clip-rule="nonzero"/></clipPath><clipPath id="95ac86cd66"><rect x="0" width="171" y="0" height="54"/></clipPath><clipPath id="49788502d7"><rect x="0" width="344" y="0" height="109"/></clipPath></defs><g transform="matrix(1, 0, 0, 1, 22, 130)"><g clip-path="url(#49788502d7)"><g clip-path="url(#6015ae440c)"><g transform="matrix(1, 0, 0, 1, 0, 2)"><g clip-path="url(#c362311155)"><g fill="#000000" fill-opacity="1"><g transform="translate(0.875849, 42.808992)"><g><path d="M 11.070312 0 L 11.070312 -27.863281 L 2.089844 -27.863281 L 2.089844 0 Z M 23.226562 0 L 14.203125 -9.023438 L 14.203125 0 Z M 14.203125 -27.863281 L 14.203125 -18.839844 L 23.226562 -27.863281 Z M 14.203125 -27.863281 "/></g></g></g><g fill="#000000" fill-opacity="1"><g transform="translate(32.536819, 42.808992)"><g><path d="M 2.089844 -27.863281 L 2.089844 0 C 4.804688 -0.0820312 6.683594 -0.878906 8.398438 -2.589844 C 10.609375 -4.804688 11.070312 -7.144531 11.070312 -10.066406 L 11.070312 -27.863281 Z M 2.089844 -27.863281 "/></g></g></g><g fill="#000000" fill-opacity="1"><g transform="translate(53.965228, 42.808992)"><g><path d="M 11.070312 0 L 11.070312 -27.863281 L 2.089844 -27.863281 L 2.089844 0 Z M 23.183594 0 L 23.183594 -17.796875 C 23.183594 -20.71875 22.726562 -23.058594 20.511719 -25.273438 C 18.796875 -26.988281 16.917969 -27.78125 14.203125 -27.863281 L 14.203125 0 Z M 35.300781 0 L 35.300781 -17.796875 C 35.300781 -20.71875 34.839844 -23.058594 32.625 -25.273438 C 30.914062 -26.988281 29.035156 -27.78125 26.316406 -27.863281 L 26.316406 0 Z M 35.300781 0 "/></g></g></g><g fill="#000000" fill-opacity="1"><g transform="translate(99.617664, 42.808992)"><g><path d="M 1.921875 -27.863281 L 1.921875 -10.066406 C 1.921875 -7.144531 2.382812 -4.804688 4.59375 -2.589844 C 6.308594 -0.878906 8.1875 -0.0820312 10.902344 0 L 10.902344 -27.863281 Z M 14.035156 -27.863281 L 14.035156 0 C 16.75 -0.0820312 18.632812 -0.878906 20.34375 -2.589844 C 22.558594 -4.804688 23.019531 -7.144531 23.019531 -10.066406 L 23.019531 -27.863281 Z M 14.035156 -27.863281 "/></g></g></g><g fill="#000000" fill-opacity="1"><g transform="translate(132.991025, 42.808992)"><g><path d="M 23.183594 0 L 23.183594 -17.796875 C 23.183594 -20.71875 22.726562 -23.058594 20.511719 -25.273438 C 18.796875 -26.988281 16.917969 -27.78125 14.203125 -27.863281 L 14.203125 0 Z M 11.070312 0 L 11.070312 -27.863281 L 2.089844 -27.863281 L 2.089844 0 Z M 11.070312 0 "/></g></g></g><g fill="#000000" fill-opacity="1"><g transform="translate(166.531448, 42.808992)"><g><path d="M 27.152344 -20.886719 L 27.152344 -27.863281 L 20.175781 -27.863281 Z M 6.683594 -27.863281 L -0.292969 -27.863281 L -0.292969 -20.886719 Z M 17.878906 0 L 17.878906 -27.863281 L 8.898438 -27.863281 L 8.898438 0 Z M 17.878906 0 "/></g></g></g><g fill="#000000" fill-opacity="1"><g transform="translate(201.826031, 42.808992)"><g><path d="M 1.921875 -27.863281 L 1.921875 -10.066406 C 1.921875 -7.144531 2.382812 -4.804688 4.59375 -2.589844 C 6.308594 -0.878906 8.1875 -0.0820312 10.902344 0 L 10.902344 -27.863281 Z M 14.035156 -27.863281 L 14.035156 0 C 16.75 -0.0820312 18.632812 -0.878906 20.34375 -2.589844 C 22.558594 -4.804688 23.019531 -7.144531 23.019531 -10.066406 L 23.019531 -27.863281 Z M 14.035156 -27.863281 "/></g></g></g></g></g></g><g clip-path="url(#58a45e69ff)"><path fill="#00d084" d="M 343.371094 54.496094 C 343.371094 24.664062 319.191406 0.484375 289.359375 0.484375 C 259.53125 0.484375 235.351562 24.664062 235.351562 54.496094 C 235.351562 84.324219 259.53125 108.503906 289.359375 108.503906 C 319.191406 108.503906 343.371094 84.324219 343.371094 54.496094 Z M 279.484375 23.472656 C 284.929688 18.027344 293.792969 18.027344 299.238281 23.472656 C 304.683594 28.917969 304.683594 37.777344 299.238281 43.222656 C 293.792969 48.667969 284.929688 48.667969 279.484375 43.222656 C 276.761719 40.5 275.402344 36.925781 275.402344 33.347656 C 275.402344 29.769531 276.761719 26.195312 279.484375 23.472656 Z M 279.484375 85.511719 C 277.40625 83.429688 276.058594 80.804688 275.582031 77.910156 C 275.578125 77.878906 275.570312 77.847656 275.566406 77.820312 C 274.457031 70.820312 273.03125 69.394531 266.03125 68.285156 C 266.003906 68.28125 265.972656 68.277344 265.945312 68.269531 C 263.046875 67.792969 260.421875 66.445312 258.34375 64.367188 C 255.621094 61.644531 254.257812 58.066406 254.257812 54.492188 C 254.257812 50.914062 255.617188 47.339844 258.34375 44.613281 C 260.980469 41.976562 264.488281 40.523438 268.21875 40.523438 C 271.949219 40.523438 275.457031 41.976562 278.09375 44.613281 C 280.171875 46.695312 281.519531 49.320312 281.996094 52.214844 C 282.003906 52.246094 282.007812 52.277344 282.011719 52.304688 C 283.011719 58.605469 284.34375 60.320312 289.359375 61.429688 C 294.378906 60.320312 295.710938 58.605469 296.710938 52.304688 C 296.714844 52.277344 296.71875 52.246094 296.726562 52.214844 C 297.203125 49.320312 298.550781 46.695312 300.628906 44.613281 C 303.265625 41.976562 306.773438 40.523438 310.503906 40.523438 C 314.234375 40.523438 317.742188 41.976562 320.378906 44.613281 C 325.824219 50.0625 325.824219 58.921875 320.378906 64.367188 C 318.300781 66.445312 315.671875 67.792969 312.777344 68.269531 C 312.75 68.277344 312.71875 68.28125 312.6875 68.285156 C 305.691406 69.394531 304.265625 70.820312 303.15625 77.820312 C 303.152344 77.851562 303.144531 77.878906 303.140625 77.910156 C 302.664062 80.804688 301.316406 83.433594 299.238281 85.511719 C 296.597656 88.148438 293.09375 89.601562 289.359375 89.601562 C 285.628906 89.601562 282.125 88.148438 279.484375 85.511719 Z M 279.484375 85.511719 " fill-opacity="1" fill-rule="nonzero"/></g><path fill="#00d084" d="M 299.191406 77.191406 C 299.195312 77.160156 299.199219 77.132812 299.207031 77.101562 C 299.9375 72.53125 301.007812 69.898438 302.886719 68.015625 C 304.765625 66.136719 307.402344 65.070312 311.972656 64.335938 C 312.003906 64.332031 312.03125 64.324219 312.0625 64.320312 C 314.152344 63.992188 316.046875 63.027344 317.542969 61.53125 C 321.425781 57.648438 321.425781 51.332031 317.542969 47.453125 C 315.664062 45.570312 313.164062 44.535156 310.503906 44.535156 C 307.847656 44.535156 305.347656 45.570312 303.464844 47.453125 C 301.96875 48.949219 301.003906 50.84375 300.675781 52.933594 C 300.671875 52.964844 300.664062 52.992188 300.660156 53.023438 C 299.988281 57.210938 299.070312 59.683594 297.496094 61.542969 C 295.839844 63.5 293.527344 64.667969 289.769531 65.445312 C 289.5 65.503906 289.222656 65.503906 288.953125 65.445312 C 285.195312 64.667969 282.882812 63.5 281.226562 61.542969 C 279.652344 59.683594 278.734375 57.210938 278.0625 53.023438 C 278.058594 52.992188 278.050781 52.964844 278.046875 52.933594 C 277.71875 50.84375 276.753906 48.949219 275.257812 47.453125 C 273.375 45.570312 270.878906 44.535156 268.21875 44.535156 C 265.558594 44.535156 263.058594 45.570312 261.179688 47.453125 C 257.296875 51.332031 257.296875 57.648438 261.179688 61.53125 C 262.675781 63.027344 264.570312 63.992188 266.660156 64.320312 C 266.691406 64.324219 266.71875 64.332031 266.75 64.335938 C 271.320312 65.070312 273.957031 66.136719 275.835938 68.015625 C 277.714844 69.898438 278.785156 72.535156 279.515625 77.105469 C 279.523438 77.132812 279.527344 77.164062 279.53125 77.191406 C 279.859375 79.28125 280.824219 81.175781 282.324219 82.671875 C 284.203125 84.554688 286.703125 85.589844 289.363281 85.589844 C 292.019531 85.589844 294.519531 84.554688 296.402344 82.671875 C 297.898438 81.175781 298.863281 79.28125 299.191406 77.191406 Z M 299.191406 77.191406 " fill-opacity="1" fill-rule="nonzero"/><path fill="#00d084" d="M 296.398438 40.386719 C 298.339844 38.445312 299.3125 35.898438 299.3125 33.347656 C 299.3125 30.796875 298.339844 28.25 296.398438 26.308594 C 292.519531 22.425781 286.203125 22.425781 282.324219 26.308594 C 278.441406 30.191406 278.441406 36.503906 282.324219 40.386719 C 286.203125 44.269531 292.519531 44.269531 296.398438 40.386719 Z M 296.398438 40.386719 " fill-opacity="1" fill-rule="nonzero"/><g clip-path="url(#5b91928496)"><path fill="#00d084" d="M 198.265625 82.664062 L 195.992188 82.664062 C 195.03125 82.664062 194.242188 83.453125 194.242188 84.414062 L 194.242188 86.6875 C 194.242188 87.648438 195.03125 88.4375 195.992188 88.4375 L 198.265625 88.4375 C 199.226562 88.4375 200.015625 87.648438 200.015625 86.6875 L 200.015625 84.414062 C 200.015625 83.449219 199.230469 82.664062 198.265625 82.664062 M 215.363281 64.050781 L 215.363281 94.550781 L 221.140625 94.550781 L 221.140625 64.050781 Z M 201.105469 72.332031 C 202.574219 77.65625 201.644531 74.125 205.253906 88.132812 L 206.910156 94.566406 L 213.050781 94.566406 L 207.277344 72.28125 C 205.855469 66.796875 202.894531 64.050781 198.351562 64.050781 L 195.855469 64.050781 C 191.335938 64.050781 188.347656 66.796875 186.929688 72.296875 L 181.207031 94.550781 L 187.332031 94.550781 L 193.050781 72.289062 C 193.523438 70.464844 194.589844 69.5625 196.214844 69.5625 L 197.972656 69.5625 C 199.558594 69.558594 200.597656 70.480469 201.105469 72.332031 " fill-opacity="1" fill-rule="evenodd"/></g><g transform="matrix(1, 0, 0, 1, 2, 52)"><g clip-path="url(#95ac86cd66)"><g fill="#00d084" fill-opacity="1"><g transform="translate(0.375318, 41.860674)"><g><path d="M 7.699219 -0.621094 C 8.859375 0.125 10.222656 0.496094 11.589844 0.496094 C 13.867188 0.496094 16.308594 -0.746094 17.59375 -2.566406 C 18.710938 -4.140625 19 -5.382812 19 -8.445312 L 19 -13.992188 C 19 -15.316406 18.710938 -17.179688 18.296875 -18.253906 C 17.179688 -21.277344 13.90625 -23.46875 10.472656 -23.46875 C 7.492188 -23.46875 4.675781 -21.8125 3.230469 -19.289062 C 2.359375 -17.757812 2.109375 -16.433594 2.109375 -13.617188 L 2.109375 8.691406 L 7.699219 8.691406 Z M 10.472656 -18.378906 C 11.839844 -18.378906 12.914062 -17.550781 13.203125 -16.390625 C 13.328125 -15.894531 13.371094 -15.234375 13.371094 -14.238281 L 13.371094 -8.445312 C 13.371094 -5.960938 12.375 -4.636719 10.515625 -4.636719 C 8.652344 -4.636719 7.699219 -5.960938 7.699219 -8.445312 L 7.699219 -14.238281 C 7.699219 -15.234375 7.742188 -15.894531 7.863281 -16.390625 C 8.15625 -17.550781 9.1875 -18.378906 10.554688 -18.378906 Z M 10.472656 -18.378906 "/></g></g></g><g fill="#00d084" fill-opacity="1"><g transform="translate(21.277573, 41.860674)"><g><path d="M 7.699219 0 L 7.699219 -14.652344 C 7.699219 -16.765625 8.359375 -18.378906 10.554688 -18.378906 C 11.507812 -18.378906 12.253906 -17.964844 12.914062 -17.054688 L 16.972656 -20.53125 C 15.355469 -22.476562 13.203125 -23.46875 10.71875 -23.46875 C 6.996094 -23.46875 3.601562 -21.109375 2.648438 -17.796875 C 2.234375 -16.433594 2.109375 -15.273438 2.109375 -12.996094 L 2.109375 0 Z M 7.699219 0 "/></g></g></g><g fill="#00d084" fill-opacity="1"><g transform="translate(38.247718, 41.860674)"><g><path d="M 18.710938 -14.15625 C 18.710938 -16.972656 18.417969 -18.046875 17.34375 -19.621094 C 16.679688 -20.570312 15.894531 -21.398438 14.902344 -22.019531 C 13.453125 -22.972656 12.003906 -23.429688 10.347656 -23.429688 C 5.339844 -23.429688 1.863281 -19.703125 1.863281 -14.238281 L 1.863281 -8.527344 C 1.863281 -3.269531 5.339844 0.414062 10.308594 0.414062 C 15.148438 0.414062 18.710938 -3.3125 18.710938 -8.402344 Z M 13.121094 -8.773438 C 13.121094 -7.367188 13.039062 -6.914062 12.75 -6.167969 C 12.375 -5.257812 11.382812 -4.675781 10.265625 -4.675781 C 9.148438 -4.675781 8.15625 -5.257812 7.78125 -6.207031 C 7.574219 -6.746094 7.492188 -7.328125 7.492188 -8.445312 L 7.492188 -14.03125 C 7.492188 -15.273438 7.535156 -15.9375 7.65625 -16.433594 C 7.949219 -17.550781 9.066406 -18.378906 10.265625 -18.378906 C 11.589844 -18.378906 12.667969 -17.550781 12.957031 -16.308594 C 13.121094 -15.644531 13.121094 -15.191406 13.121094 -13.949219 Z M 13.121094 -8.773438 "/></g></g></g><g fill="#00d084" fill-opacity="1"><g transform="translate(58.860231, 41.860674)"><g><path d="M 7.699219 -31.664062 L 2.109375 -31.664062 L 2.109375 0 L 7.699219 0 Z M 7.699219 -31.664062 "/></g></g></g><g fill="#00d084" fill-opacity="1"><g transform="translate(68.669797, 41.860674)"><g><path d="M 18.171875 0 L 18.171875 -14.238281 C 18.171875 -17.675781 17.839844 -18.792969 16.351562 -20.53125 C 15.5625 -21.398438 14.570312 -22.0625 13.453125 -22.476562 C 12.292969 -22.929688 11.300781 -23.054688 9.394531 -23.054688 L 4.386719 -23.054688 L 4.386719 -17.921875 L 9.976562 -17.921875 C 12.128906 -17.921875 12.582031 -17.507812 12.582031 -15.5625 L 12.582031 -14.40625 L 10.429688 -14.40625 C 8.03125 -14.40625 7.449219 -14.320312 6.125 -13.90625 C 5.175781 -13.617188 4.261719 -13.078125 3.476562 -12.335938 C 2.027344 -11.011719 1.28125 -9.3125 1.28125 -7.242188 C 1.28125 -4.347656 2.980469 -1.65625 5.421875 -0.703125 C 6.914062 -0.125 7.699219 0 10.308594 0 Z M 12.582031 -5.175781 L 9.894531 -5.175781 C 8.484375 -5.175781 6.953125 -5.296875 6.953125 -7.160156 C 6.953125 -8.691406 8.195312 -9.148438 9.480469 -9.148438 L 12.582031 -9.148438 Z M 12.582031 -5.175781 "/></g></g></g><g fill="#00d084" fill-opacity="1"><g transform="translate(88.951187, 41.860674)"><g><path d="M 19.039062 -23.054688 L 13.453125 -23.054688 L 13.453125 -8.898438 C 13.453125 -6.375 12.957031 -4.675781 10.597656 -4.675781 C 8.359375 -4.675781 7.699219 -6.207031 7.699219 -8.320312 L 7.699219 -23.054688 L 2.109375 -23.054688 L 2.109375 -9.601562 C 2.109375 -5.960938 2.730469 -4.054688 4.46875 -2.195312 C 6.085938 -0.496094 8.238281 0.457031 10.636719 0.457031 C 14.40625 0.457031 17.757812 -2.070312 18.710938 -5.628906 C 19 -6.621094 19.039062 -7.617188 19.039062 -9.480469 Z M 19.039062 -23.054688 "/></g></g></g><g fill="#00d084" fill-opacity="1"><g transform="translate(110.101778, 41.860674)"><g><path d="M 19.039062 0 L 19.039062 -13.578125 C 19.039062 -17.179688 18.585938 -18.75 16.929688 -20.613281 C 15.316406 -22.476562 13.121094 -23.46875 10.636719 -23.46875 C 6.828125 -23.46875 3.519531 -21.027344 2.523438 -17.46875 C 2.277344 -16.515625 2.109375 -15.109375 2.109375 -13.453125 L 2.109375 0 L 7.699219 0 L 7.699219 -14.734375 C 7.699219 -16.101562 7.78125 -16.558594 8.15625 -17.136719 C 8.609375 -17.882812 9.601562 -18.378906 10.597656 -18.378906 C 11.921875 -18.378906 13.078125 -17.425781 13.328125 -16.144531 C 13.410156 -15.644531 13.453125 -15.148438 13.453125 -14.15625 L 13.453125 0 Z M 19.039062 0 "/></g></g></g><g fill="#00d084" fill-opacity="1"><g transform="translate(131.252369, 41.860674)"><g><path d="M 12.625 -5.878906 C 11.878906 -5.007812 11.257812 -4.636719 10.347656 -4.636719 C 9.230469 -4.636719 8.15625 -5.257812 7.824219 -6.167969 C 7.574219 -6.789062 7.492188 -7.492188 7.492188 -9.148438 L 7.492188 -13.371094 C 7.492188 -16.226562 7.65625 -17.011719 8.484375 -17.714844 C 8.980469 -18.171875 9.601562 -18.378906 10.265625 -18.378906 C 11.21875 -18.378906 11.921875 -18.003906 12.707031 -17.011719 L 16.722656 -20.488281 C 14.695312 -22.558594 12.832031 -23.429688 10.472656 -23.429688 C 5.917969 -23.429688 2.402344 -20.242188 1.988281 -15.6875 C 1.902344 -14.984375 1.863281 -14.199219 1.863281 -13.078125 L 1.863281 -9.3125 C 1.863281 -6.292969 2.152344 -5.007812 3.230469 -3.394531 C 4.84375 -0.953125 7.328125 0.414062 10.265625 0.414062 C 12.832031 0.414062 14.570312 -0.371094 16.640625 -2.484375 Z M 12.625 -5.878906 "/></g></g></g><g fill="#00d084" fill-opacity="1"><g transform="translate(148.677806, 41.860674)"><g><path d="M 19 0 L 19 -14.15625 C 19 -17.507812 18.917969 -17.882812 18.089844 -19.578125 C 17.011719 -21.855469 14.320312 -23.46875 11.632812 -23.46875 C 10.101562 -23.46875 9.066406 -23.097656 7.699219 -22.351562 L 7.699219 -31.664062 L 2.109375 -31.664062 L 2.109375 0 L 7.699219 0 L 7.699219 -14.363281 C 7.699219 -16.640625 8.195312 -18.378906 10.554688 -18.378906 C 13.285156 -18.378906 13.328125 -16.019531 13.328125 -13.410156 L 13.328125 0 Z M 19 0 "/></g></g></g></g></g></g></g></svg>