<svg xmlns="http://www.w3.org/2000/svg" xmlns:xlink="http://www.w3.org/1999/xlink" width="500" zoomAndPan="magnify" viewBox="0 0 375 374.999991" height="500" preserveAspectRatio="xMidYMid meet" version="1.0"><defs><clipPath id="08293d1d80"><path d="M 58.515625 58.480469 L 316.515625 58.480469 L 316.515625 316.480469 L 58.515625 316.480469 Z M 58.515625 58.480469 " clip-rule="nonzero"/></clipPath></defs><g clip-path="url(#08293d1d80)"><path fill="#00d084" d="M 316.515625 187.5 C 316.515625 116.246094 258.753906 58.480469 187.5 58.480469 C 116.246094 58.480469 58.480469 116.246094 58.480469 187.5 C 58.480469 258.753906 116.246094 316.515625 187.5 316.515625 C 258.753906 316.515625 316.515625 258.753906 316.515625 187.5 Z M 163.90625 113.394531 C 176.917969 100.386719 198.082031 100.386719 211.089844 113.394531 C 224.097656 126.402344 224.097656 147.566406 211.089844 160.578125 C 198.082031 173.585938 176.917969 173.585938 163.910156 160.578125 C 157.40625 154.074219 154.152344 145.527344 154.152344 136.984375 C 154.152344 128.441406 157.402344 119.898438 163.90625 113.394531 Z M 163.90625 261.589844 C 158.941406 256.621094 155.722656 250.347656 154.585938 243.429688 C 154.570312 243.359375 154.558594 243.289062 154.546875 243.214844 C 151.898438 226.496094 148.492188 223.089844 131.773438 220.441406 C 131.703125 220.433594 131.632812 220.417969 131.5625 220.40625 C 124.644531 219.269531 118.367188 216.046875 113.402344 211.082031 C 106.898438 204.578125 103.648438 196.03125 103.644531 187.492188 C 103.644531 178.945312 106.898438 170.40625 113.402344 163.898438 C 119.703125 157.597656 128.082031 154.128906 136.992188 154.128906 C 145.90625 154.128906 154.28125 157.597656 160.585938 163.898438 C 165.550781 168.867188 168.769531 175.140625 169.90625 182.054688 C 169.921875 182.128906 169.933594 182.199219 169.945312 182.273438 C 172.328125 197.320312 175.511719 201.417969 187.5 204.066406 C 199.484375 201.417969 202.667969 197.320312 205.054688 182.273438 C 205.066406 182.199219 205.078125 182.128906 205.09375 182.054688 C 206.226562 175.140625 209.449219 168.867188 214.414062 163.898438 C 220.714844 157.597656 229.09375 154.128906 238.003906 154.128906 C 246.917969 154.128906 255.296875 157.597656 261.597656 163.898438 C 274.605469 176.910156 274.605469 198.074219 261.597656 211.082031 C 256.628906 216.050781 250.355469 219.269531 243.433594 220.40625 C 243.363281 220.417969 243.292969 220.433594 243.222656 220.445312 C 226.503906 223.089844 223.097656 226.496094 220.449219 243.214844 C 220.441406 243.289062 220.425781 243.363281 220.410156 243.433594 C 219.273438 250.351562 216.054688 256.625 211.089844 261.589844 C 204.789062 267.890625 196.410156 271.359375 187.5 271.359375 C 178.585938 271.359375 170.210938 267.890625 163.90625 261.589844 Z M 163.90625 261.589844 " fill-opacity="1" fill-rule="nonzero"/></g><path fill="#00d084" d="M 210.980469 241.71875 C 210.992188 241.644531 211.003906 241.574219 211.019531 241.503906 C 212.769531 230.589844 215.320312 224.292969 219.808594 219.800781 C 224.300781 215.3125 230.597656 212.757812 241.515625 211.011719 C 241.585938 210.996094 241.65625 210.984375 241.726562 210.972656 C 246.714844 210.1875 251.242188 207.882812 254.820312 204.304688 C 264.089844 195.035156 264.089844 179.949219 254.820312 170.675781 C 250.328125 166.1875 244.355469 163.710938 238.003906 163.710938 C 231.652344 163.710938 225.683594 166.1875 221.191406 170.675781 C 217.617188 174.253906 215.308594 178.78125 214.523438 183.769531 C 214.511719 183.84375 214.5 183.914062 214.488281 183.984375 C 212.882812 193.988281 210.691406 199.894531 206.933594 204.335938 C 202.976562 209.011719 197.453125 211.800781 188.46875 213.660156 C 187.828125 213.796875 187.167969 213.796875 186.527344 213.660156 C 177.546875 211.800781 172.023438 209.011719 168.066406 204.335938 C 164.308594 199.894531 162.113281 193.988281 160.511719 183.984375 C 160.496094 183.914062 160.484375 183.84375 160.472656 183.769531 C 159.6875 178.78125 157.382812 174.253906 153.808594 170.675781 C 149.316406 166.1875 143.34375 163.710938 136.992188 163.710938 C 130.640625 163.710938 124.671875 166.1875 120.179688 170.675781 C 110.910156 179.949219 110.910156 195.035156 120.179688 204.304688 C 123.757812 207.882812 128.285156 210.1875 133.273438 210.972656 C 133.34375 210.984375 133.414062 210.996094 133.484375 211.011719 C 144.402344 212.757812 150.699219 215.3125 155.191406 219.800781 C 159.679688 224.292969 162.234375 230.589844 163.980469 241.507812 C 163.996094 241.578125 164.007812 241.648438 164.019531 241.71875 C 164.804688 246.707031 167.109375 251.234375 170.6875 254.8125 C 175.179688 259.300781 181.148438 261.777344 187.5 261.777344 C 193.851562 261.777344 199.824219 259.300781 204.3125 254.8125 C 207.890625 251.234375 210.195312 246.707031 210.980469 241.71875 Z M 210.980469 241.71875 " fill-opacity="1" fill-rule="nonzero"/><path fill="#00d084" d="M 204.3125 153.800781 C 208.949219 149.164062 211.265625 143.074219 211.265625 136.984375 C 211.265625 130.894531 208.949219 124.804688 204.3125 120.171875 C 195.042969 110.898438 179.957031 110.898438 170.683594 120.171875 C 161.414062 129.441406 161.414062 144.527344 170.683594 153.796875 C 179.957031 163.070312 195.042969 163.070312 204.3125 153.800781 Z M 204.3125 153.800781 " fill-opacity="1" fill-rule="nonzero"/></svg>